# xmcd
#
# Track frame offsets:
#	150
#	20557
#	37257
#	54284
#	71479
#	95402
#	110784
#	127017
#	146190
#	163835
#	181860
#	200670
#	219304
#	239214
#
# Disc length: 3442 seconds
#
# Revision: 1
# Processed by: cddbd v1.5.2PL0 Copyright (c) Steve Scherf et al.
# Submitted via: audiograbber 1.83.01
#
DISCID=dd0d700e
DTITLE=Tim McGraw - Let It Go
DYEAR=2007
DGENRE=Country
TTITLE0=Last Dollar (Fly Away)
TTITLE1=I'm Working
TTITLE2=Let It Go
TTITLE3=Whiskey and You
TTITLE4=Suspicions
TTITLE5=Kristofferson
TTITLE6=Put Your Lovin' On Me
TTITLE7=Nothin' to Die For
TTITLE8=Between the River and Me
TTITLE9=Train #10
TTITLE10=I Need You (Feat. Faith Hill)
TTITLE11=Comin' Home
TTITLE12=Shotgun Rider
TTITLE13=If Your're Reading This (Recorded Live at the 2007 Acedemy of Country 
TTITLE13=Music Awards)
EXTD=
EXTT0=
EXTT1=
EXTT2=
EXTT3=
EXTT4=
EXTT5=
EXTT6=
EXTT7=
EXTT8=
EXTT9=
EXTT10=
EXTT11=
EXTT12=
EXTT13=
PLAYORDER=
